<svg version="1.1" id="Layer_1" xmlns="http://www.w3.org/2000/svg" xmlns:xlink="http://www.w3.org/1999/xlink" x="0px" y="0px" viewBox="0 0 500 500" style="width: 166px;" xml:space="preserve" data-imageid="currencies-30" imageName="Currencies" class="illustrations_image">
<style type="text/css">
	.st0_currencies-30{fill:#D1D3D4;}
	.st1_currencies-30{fill:#FFFFFF;}
	.st2_currencies-30{fill:#231F20;}
	.st3_currencies-30{fill:#68E1FD;}
	.st4_currencies-30{fill:none;}
</style>
<g id="Grids_currencies-30">
	<path class="st0_currencies-30" d="M87.5,392.1c-0.4,0-0.7-0.3-0.7-0.7l0,0V174.8c0-0.4,0.3-0.7,0.7-0.7c0.4,0,0.7,0.3,0.7,0.7v216.6&#10;&#9;&#9;C88.2,391.8,87.9,392.1,87.5,392.1z"/>
	<path class="st0_currencies-30" d="M171.6,392.1c-0.4,0-0.7-0.3-0.7-0.7l0,0V174.8c0-0.4,0.3-0.7,0.7-0.7c0.4,0,0.7,0.3,0.7,0.7c0,0,0,0,0,0&#10;&#9;&#9;v216.6C172.3,391.8,172,392.1,171.6,392.1z"/>
	<path class="st0_currencies-30" d="M255.7,392.1c-0.4,0-0.7-0.3-0.7-0.7l0,0V174.8c0-0.4,0.3-0.7,0.7-0.7c0.4,0,0.7,0.3,0.7,0.7v216.6&#10;&#9;&#9;C256.4,391.8,256,392.1,255.7,392.1C255.7,392.1,255.7,392.1,255.7,392.1L255.7,392.1z"/>
	<path class="st0_currencies-30" d="M339.7,392.1c-0.4,0-0.7-0.3-0.7-0.7v0V174.8c0-0.4,0.3-0.7,0.7-0.7c0.4,0,0.7,0.3,0.7,0.7v216.6&#10;&#9;&#9;C340.4,391.8,340.1,392.1,339.7,392.1z"/>
	<path class="st0_currencies-30" d="M423.8,392.1c-0.4,0-0.7-0.3-0.7-0.7v0V174.8c0-0.4,0.3-0.7,0.7-0.7c0.4,0,0.7,0.3,0.7,0.7c0,0,0,0,0,0v216.6&#10;&#9;&#9;C424.5,391.8,424.2,392.1,423.8,392.1z"/>
	<path class="st0_currencies-30" d="M423.8,175.5H87.5c-0.4,0-0.7-0.3-0.7-0.7c0-0.4,0.3-0.7,0.7-0.7c0,0,0,0,0,0h336.3c0.4,0,0.7,0.3,0.7,0.7&#10;&#9;&#9;C424.5,175.2,424.2,175.5,423.8,175.5L423.8,175.5z"/>
	<path class="st0_currencies-30" d="M423.8,247.1H87.5c-0.4,0-0.7-0.3-0.7-0.7c0-0.4,0.3-0.7,0.7-0.7h336.3c0.4,0,0.7,0.3,0.7,0.7&#10;&#9;&#9;C424.5,246.8,424.2,247.1,423.8,247.1L423.8,247.1z"/>
	<path class="st0_currencies-30" d="M423.8,318.7H87.5c-0.4,0-0.7-0.3-0.7-0.7c0-0.4,0.3-0.7,0.7-0.7c0,0,0,0,0,0h336.3c0.4,0,0.7,0.3,0.7,0.7&#10;&#9;&#9;S424.2,318.7,423.8,318.7C423.8,318.7,423.8,318.7,423.8,318.7L423.8,318.7z"/>
	<path class="st0_currencies-30" d="M443,392.7H57c-0.4,0-0.7-0.3-0.7-0.7c0-0.4,0.3-0.7,0.7-0.7h386c0.4,0,0.7,0.3,0.7,0.7S443.4,392.7,443,392.7&#10;&#9;&#9;C443,392.7,443,392.7,443,392.7z"/>
</g>
<g id="Coins_currencies-30">
	<path class="st1_currencies-30" d="M117.8,385.2v15.3c0,5.8,16.6,10.5,37,10.5s37-4.7,37-10.5v-15.3H117.8z"/>
	<path class="st2_currencies-30" d="M154.9,411.8c-18.6,0-37.7-4.2-37.7-11.2v-15.3c0-0.4,0.3-0.7,0.7-0.7h0h74.1c0.4,0,0.7,0.3,0.7,0.7l0,0v15.3&#10;&#9;&#9;C192.6,407.5,173.4,411.8,154.9,411.8L154.9,411.8z M118.5,385.9v14.6c0,4.7,14.6,9.8,36.3,9.8s36.3-5.1,36.3-9.8v-14.6&#10;&#9;&#9;C191.2,385.9,118.5,385.9,118.5,385.9z"/>
	<ellipse class="st2_currencies-30" cx="154.9" cy="385.2" rx="37" ry="10.5"/>
	<path class="st2_currencies-30" d="M154.9,396.3c-21.1,0-37.7-4.9-37.7-11.1s16.5-11.1,37.7-11.1s37.7,4.9,37.7,11.1S176,396.3,154.9,396.3z&#10;&#9;&#9; M154.9,375.3c-21.8,0-36.4,5.1-36.4,9.9s14.6,9.9,36.4,9.9s36.4-5.1,36.4-9.9S176.6,375.3,154.9,375.3L154.9,375.3z"/>
	<path class="st1_currencies-30" d="M110.2,361.8v15.3c0,5.8,16.6,10.5,37,10.5s37-4.7,37-10.5v-15.3H110.2z"/>
	<path class="st2_currencies-30" d="M147.3,388.3c-18.6,0-37.7-4.2-37.7-11.2v-15.3c0-0.4,0.3-0.7,0.7-0.7h0h74.1c0.4,0,0.7,0.3,0.7,0.7l0,0v15.3&#10;&#9;&#9;C185,384.1,165.8,388.3,147.3,388.3L147.3,388.3z M110.9,362.5v14.6c0,4.7,14.6,9.8,36.3,9.8s36.3-5.1,36.3-9.8v-14.6H110.9z"/>
	<ellipse class="st1_currencies-30" cx="147.3" cy="361.8" rx="37" ry="10.5"/>
	<path class="st2_currencies-30" d="M147.3,373c-18.6,0-37.7-4.2-37.7-11.2s19.2-11.2,37.7-11.2s37.7,4.2,37.7,11.2S165.8,373,147.3,373z&#10;&#9;&#9; M147.3,352c-21.7,0-36.3,5.1-36.3,9.8s14.6,9.8,36.3,9.8s36.3-5.1,36.3-9.8S169,352,147.3,352z"/>
	<path class="st0_currencies-30" d="M147.3,368.9c-15.8,0-31.8-2.4-31.8-7.1s16-7.1,31.8-7.1s31.8,2.4,31.8,7.1S163.1,368.9,147.3,368.9z&#10;&#9;&#9; M147.3,356.1c-18.8,0-30.4,3.3-30.4,5.7s11.5,5.7,30.4,5.7s30.4-3.3,30.4-5.7S166.1,356.1,147.3,356.1z"/>
	<path class="st1_currencies-30" d="M204.8,388v15.3c0,5.8,16.6,10.5,37,10.5s37-4.7,37-10.5V388H204.8z"/>
	<path class="st2_currencies-30" d="M241.8,414.5c-18.6,0-37.7-4.2-37.7-11.2V388c0-0.4,0.3-0.7,0.7-0.7c0,0,0,0,0,0h74.1c0.4,0,0.7,0.3,0.7,0.7v0&#10;&#9;&#9;v15.3C279.6,410.3,260.4,414.5,241.8,414.5L241.8,414.5z M205.5,388.7v14.6c0,4.7,14.6,9.8,36.3,9.8s36.3-5.1,36.3-9.8v-14.6H205.5&#10;&#9;&#9;z"/>
	<ellipse class="st2_currencies-30" cx="241.8" cy="388" rx="37" ry="10.5"/>
	<path class="st2_currencies-30" d="M241.8,399.1c-21.1,0-37.6-4.9-37.6-11.1s16.5-11.1,37.6-11.1s37.6,4.9,37.6,11.1S263,399.1,241.8,399.1z&#10;&#9;&#9; M241.8,378.1c-21.8,0-36.4,5.1-36.4,9.9s14.6,9.9,36.4,9.9s36.4-5.1,36.4-9.9S263.6,378.1,241.8,378.1L241.8,378.1z"/>
	<path class="st1_currencies-30" d="M210.8,365.9v15.3c0,5.8,16.6,10.5,37,10.5s37-4.7,37-10.5v-15.3H210.8z"/>
	<path class="st2_currencies-30" d="M247.8,392.4c-18.6,0-37.7-4.2-37.7-11.2v-15.3c0-0.4,0.3-0.7,0.7-0.7c0,0,0,0,0,0h74.1c0.4,0,0.7,0.3,0.7,0.7&#10;&#9;&#9;v0v15.3C285.5,388.2,266.4,392.4,247.8,392.4L247.8,392.4z M211.5,366.6v14.6c0,4.7,14.6,9.8,36.3,9.8s36.3-5.1,36.3-9.8v-14.6&#10;&#9;&#9;L211.5,366.6L211.5,366.6z"/>
	<ellipse class="st2_currencies-30" cx="247.8" cy="365.9" rx="37" ry="10.5"/>
	<path class="st2_currencies-30" d="M247.8,377c-21.1,0-37.6-4.9-37.6-11.1s16.5-11.1,37.6-11.1s37.6,4.9,37.6,11.1S268.9,377,247.8,377z&#10;&#9;&#9; M247.8,356c-21.8,0-36.4,5.1-36.4,9.9s14.6,9.9,36.4,9.9s36.4-5.1,36.4-9.9S269.6,356,247.8,356z"/>
	<path class="st1_currencies-30" d="M204.8,343.6V359c0,5.8,16.6,10.5,37,10.5s37-4.7,37-10.5v-15.4H204.8z"/>
	<path class="st2_currencies-30" d="M241.8,370.2c-18.6,0-37.7-4.2-37.7-11.2v-15.3c0-0.4,0.3-0.7,0.7-0.7c0,0,0,0,0,0h74.1c0.4,0,0.7,0.3,0.7,0.7&#10;&#9;&#9;v0V359C279.6,366,260.4,370.2,241.8,370.2L241.8,370.2z M205.5,344.3V359c0,4.7,14.6,9.8,36.3,9.8s36.3-5.1,36.3-9.8v-14.7H205.5z"/>
	<ellipse class="st2_currencies-30" cx="241.8" cy="343.6" rx="37" ry="10.5"/>
	<path class="st2_currencies-30" d="M241.8,354.8c-21.1,0-37.6-4.9-37.6-11.1s16.5-11.1,37.6-11.1s37.6,4.9,37.6,11.1S263,354.8,241.8,354.8z&#10;&#9;&#9; M241.8,333.8c-21.8,0-36.4,5.1-36.4,9.9s14.6,9.9,36.4,9.9s36.4-5.1,36.4-9.9S263.6,333.8,241.8,333.8L241.8,333.8z"/>
	<path class="st1_currencies-30" d="M216.7,325.5v15.3c0,5.8,16.6,10.5,37,10.5s37-4.7,37-10.5v-15.3H216.7z"/>
	<path class="st2_currencies-30" d="M253.8,352c-18.6,0-37.7-4.2-37.7-11.2v-15.3c0-0.4,0.3-0.7,0.7-0.7c0,0,0,0,0,0h74.1c0.4,0,0.7,0.3,0.7,0.7v0&#10;&#9;&#9;v15.3C291.5,347.8,272.3,352,253.8,352L253.8,352z M217.4,326.2v14.6c0,4.7,14.6,9.8,36.3,9.8s36.3-5.1,36.3-9.8v-14.6H217.4&#10;&#9;&#9;L217.4,326.2z"/>
	<ellipse class="st2_currencies-30" cx="253.8" cy="325.5" rx="37" ry="10.5"/>
	<path class="st2_currencies-30" d="M253.8,336.6c-21.1,0-37.7-4.9-37.7-11.1s16.5-11.1,37.6-11.1s37.6,4.9,37.6,11.1S274.9,336.6,253.8,336.6&#10;&#9;&#9;L253.8,336.6z M253.8,315.6c-21.8,0-36.4,5.1-36.4,9.9s14.6,9.9,36.4,9.9s36.4-5.1,36.4-9.9S275.6,315.6,253.8,315.6L253.8,315.6z"/>
	<path class="st1_currencies-30" d="M208.6,307.3v15.3c0,5.8,16.6,10.5,37,10.5s37-4.7,37-10.5v-15.3H208.6z"/>
	<path class="st2_currencies-30" d="M245.6,333.8c-18.6,0-37.7-4.2-37.7-11.2v-15.3c0-0.4,0.3-0.7,0.7-0.7c0,0,0,0,0,0h74.1c0.4,0,0.7,0.3,0.7,0.7&#10;&#9;&#9;v0v15.3C283.4,329.6,264.2,333.8,245.6,333.8L245.6,333.8z M209.3,308v14.6c0,4.7,14.6,9.8,36.3,9.8s36.3-5.1,36.3-9.8V308H209.3z"/>
	<ellipse class="st1_currencies-30" cx="245.6" cy="307.3" rx="37" ry="10.5"/>
	<path class="st2_currencies-30" d="M245.6,318.5c-18.6,0-37.7-4.2-37.7-11.2s19.2-11.2,37.7-11.2s37.7,4.2,37.7,11.2S264.2,318.5,245.6,318.5&#10;&#9;&#9;L245.6,318.5z M245.6,297.5c-21.7,0-36.3,5.1-36.3,9.8s14.6,9.8,36.3,9.8s36.4-5.1,36.4-9.8S267.4,297.5,245.6,297.5L245.6,297.5z"/>
	<path class="st0_currencies-30" d="M245.6,314.4c-15.8,0-31.8-2.4-31.8-7.1s16-7.1,31.8-7.1s31.8,2.4,31.8,7.1S261.4,314.4,245.6,314.4&#10;&#9;&#9;L245.6,314.4z M245.6,301.6c-18.8,0-30.4,3.3-30.4,5.7s11.6,5.7,30.4,5.7s30.4-3.3,30.4-5.7S264.5,301.6,245.6,301.6z"/>
	<path class="st1_currencies-30" d="M390.9,379.5v15.3c0,5.8-16.6,10.5-37,10.5s-37-4.7-37-10.5v-15.3H390.9z"/>
	<path class="st2_currencies-30" d="M353.9,406.1c-18.5,0-37.7-4.2-37.7-11.2v-15.3c0-0.4,0.3-0.7,0.7-0.7h0h74.1c0.4,0,0.7,0.3,0.7,0.7v0v15.3&#10;&#9;&#9;C391.6,401.9,372.4,406.1,353.9,406.1L353.9,406.1z M317.5,380.2v14.6c0,4.7,14.6,9.8,36.3,9.8s36.3-5.1,36.3-9.8v-14.6&#10;&#9;&#9;L317.5,380.2L317.5,380.2z"/>
	<ellipse class="st2_currencies-30" cx="353.9" cy="379.5" rx="37" ry="10.5"/>
	<path class="st2_currencies-30" d="M353.9,390.7c-21.1,0-37.6-4.9-37.6-11.1s16.5-11.1,37.6-11.1s37.6,4.9,37.6,11.1S375,390.7,353.9,390.7z&#10;&#9;&#9; M353.9,369.7c-21.8,0-36.4,5.1-36.4,9.9s14.6,9.9,36.4,9.9s36.4-5.1,36.4-9.9S375.6,369.6,353.9,369.7L353.9,369.7z"/>
	<path class="st1_currencies-30" d="M379,361.4v15.3c0,5.8-16.6,10.5-37,10.5s-37-4.7-37-10.5v-15.3H379z"/>
	<path class="st2_currencies-30" d="M341.9,387.9c-18.5,0-37.7-4.2-37.7-11.2v-15.3c0-0.4,0.3-0.7,0.7-0.7h0H379c0.4,0,0.7,0.3,0.7,0.7v0v15.3&#10;&#9;&#9;C379.7,383.7,360.5,387.9,341.9,387.9L341.9,387.9z M305.6,362.1v14.6c0,4.7,14.6,9.8,36.3,9.8s36.3-5.1,36.3-9.8v-14.6H305.6z"/>
	<ellipse class="st2_currencies-30" cx="341.9" cy="361.4" rx="37" ry="10.5"/>
	<path class="st2_currencies-30" d="M341.9,372.5c-21.1,0-37.6-4.9-37.6-11.1s16.5-11.1,37.6-11.1s37.6,4.9,37.6,11.1S363,372.5,341.9,372.5z&#10;&#9;&#9; M341.9,351.5c-21.8,0-36.4,5.1-36.4,9.9s14.6,9.9,36.4,9.9s36.4-5.1,36.4-9.9S363.7,351.5,341.9,351.5L341.9,351.5z"/>
	<path class="st1_currencies-30" d="M387.1,343.2v15.3c0,5.8-16.6,10.5-37,10.5s-37-4.7-37-10.5v-15.3H387.1L387.1,343.2z"/>
	<path class="st2_currencies-30" d="M350,369.7c-18.5,0-37.7-4.2-37.7-11.2v-15.3c0-0.4,0.3-0.7,0.7-0.7h0h74.1c0.4,0,0.7,0.3,0.7,0.7v0v15.3&#10;&#9;&#9;C387.8,365.5,368.6,369.7,350,369.7L350,369.7z M313.7,343.9v14.6c0,4.7,14.6,9.8,36.3,9.8s36.3-5.1,36.3-9.8v-14.6H313.7z"/>
	<ellipse class="st2_currencies-30" cx="350" cy="343.2" rx="37" ry="10.5"/>
	<path class="st2_currencies-30" d="M350,354.3c-21.1,0-37.6-4.9-37.6-11.1s16.5-11.1,37.6-11.1s37.7,4.9,37.7,11.1S371.2,354.3,350,354.3z&#10;&#9;&#9; M350,333.3c-21.8,0-36.4,5.1-36.4,9.9s14.6,9.9,36.4,9.9s36.4-5.1,36.4-9.9S371.8,333.3,350,333.3L350,333.3z"/>
	<path class="st1_currencies-30" d="M388.4,322.6V338c0,5.8-16.6,10.5-37,10.5s-37-4.7-37-10.5v-15.4H388.4L388.4,322.6z"/>
	<path class="st2_currencies-30" d="M351.4,349.2c-18.5,0-37.7-4.2-37.7-11.2v-15.3c0-0.4,0.3-0.7,0.7-0.7h0h74.1c0.4,0,0.7,0.3,0.7,0.7v0V338&#10;&#9;&#9;C389.1,345,369.9,349.2,351.4,349.2L351.4,349.2z M315,323.3V338c0,4.7,14.6,9.8,36.3,9.8s36.3-5.1,36.3-9.8v-14.7H315z"/>
	<ellipse class="st2_currencies-30" cx="351.4" cy="322.6" rx="37" ry="10.5"/>
	<path class="st2_currencies-30" d="M351.4,333.8c-21.1,0-37.6-4.9-37.6-11.1s16.5-11.1,37.6-11.1s37.6,4.9,37.6,11.1S372.5,333.8,351.4,333.8z&#10;&#9;&#9; M351.4,312.8c-21.8,0-36.4,5.1-36.4,9.9s14.6,9.9,36.4,9.9s36.4-5.1,36.4-9.9S373.1,312.8,351.4,312.8L351.4,312.8z"/>
	<path class="st1_currencies-30" d="M381.1,302.6v15.3c0,5.8-16.6,10.5-37,10.5s-37-4.7-37-10.5v-15.3H381.1L381.1,302.6z"/>
	<path class="st2_currencies-30" d="M344.1,329.1c-18.5,0-37.7-4.2-37.7-11.2v-15.3c0-0.4,0.3-0.7,0.7-0.7h0h74.1c0.4,0,0.7,0.3,0.7,0.7v0v15.3&#10;&#9;&#9;C381.8,324.9,362.6,329.1,344.1,329.1L344.1,329.1z M307.7,303.3v14.6c0,4.7,14.6,9.8,36.3,9.8s36.3-5.1,36.3-9.8v-14.6&#10;&#9;&#9;L307.7,303.3L307.7,303.3z"/>
	<ellipse class="st2_currencies-30" cx="344.1" cy="302.6" rx="37" ry="10.5"/>
	<path class="st2_currencies-30" d="M344.1,313.7c-21.1,0-37.6-4.9-37.6-11.1s16.5-11.1,37.6-11.1s37.6,4.9,37.6,11.1S365.2,313.7,344.1,313.7z&#10;&#9;&#9; M344.1,292.7c-21.8,0-36.4,5.1-36.4,9.9s14.6,9.9,36.4,9.9s36.4-5.1,36.4-9.9S365.9,292.7,344.1,292.7L344.1,292.7z"/>
	<path class="st1_currencies-30" d="M390.9,282v15.3c0,5.8-16.6,10.5-37,10.5s-37-4.7-37-10.5V282H390.9z"/>
	<path class="st2_currencies-30" d="M353.9,308.5c-18.5,0-37.7-4.2-37.7-11.2V282c0-0.4,0.3-0.7,0.7-0.7h0h74.1c0.4,0,0.7,0.3,0.7,0.7v0v15.3&#10;&#9;&#9;C391.6,304.3,372.4,308.5,353.9,308.5L353.9,308.5z M317.5,282.7v14.6c0,4.7,14.6,9.8,36.3,9.8s36.3-5.1,36.3-9.8v-14.6H317.5z"/>
	<ellipse class="st1_currencies-30" cx="353.9" cy="282" rx="37" ry="10.5"/>
	<path class="st2_currencies-30" d="M353.9,293.2c-18.5,0-37.7-4.2-37.7-11.2s19.2-11.2,37.7-11.2s37.7,4.2,37.7,11.2S372.4,293.2,353.9,293.2z&#10;&#9;&#9; M353.9,272.2c-21.7,0-36.3,5.1-36.3,9.8s14.6,9.8,36.3,9.8s36.3-5.1,36.3-9.8S375.6,272.2,353.9,272.2L353.9,272.2z"/>
	<path class="st0_currencies-30" d="M353.9,289.1c-15.8,0-31.8-2.4-31.8-7.1s16-7.1,31.8-7.1s31.8,2.4,31.8,7.1S369.6,289.1,353.9,289.1z&#10;&#9;&#9; M353.9,276.3c-18.8,0-30.4,3.3-30.4,5.7s11.5,5.7,30.4,5.7s30.4-3.3,30.4-5.7S372.7,276.3,353.9,276.3z"/>
</g>
<g id="Character_currencies-30">
	<path class="st1_currencies-30" d="M180.3,231.9c0,0-4.4-4.8-4.7-6.5s-0.6-7.7-2.1-6.6s-1.1,5.3-1.1,5.3s-6-7.2-7.8-5.7s-2.5,3.1-2.6,6.2&#10;&#9;&#9;S177,241,177,241"/>
	<path class="st2_currencies-30" d="M177,241.7c-0.2,0-0.3-0.1-0.5-0.2c-2.6-2.2-15.4-13.6-15.3-16.9s0.9-5,2.9-6.7c0.3-0.3,0.8-0.4,1.2-0.4&#10;&#9;&#9;c1.8,0.1,4.6,2.9,6.3,4.7c0.1-1.4,0.4-3.2,1.4-4c0.3-0.3,0.8-0.3,1.2-0.2c1,0.4,1.4,2.3,1.8,6c0.1,0.5,0.1,0.9,0.2,1.2&#10;&#9;&#9;c0.2,1,2.7,4.2,4.5,6.1c0.3,0.3,0.3,0.7,0,1c-0.3,0.3-0.7,0.3-1,0c0,0,0,0,0,0c-0.8-0.8-4.6-5-4.9-6.9c0-0.3-0.1-0.8-0.2-1.3&#10;&#9;&#9;c-0.1-1.1-0.5-4-0.9-4.8c-0.7,0.7-0.8,3.1-0.7,4.6c0,0.3-0.2,0.6-0.4,0.7c-0.3,0.1-0.6,0-0.8-0.2c-1.8-2.1-5.1-5.5-6.6-5.6&#10;&#9;&#9;c-0.1,0-0.1,0-0.2,0c-1.7,1.5-2.3,2.9-2.4,5.7c-0.1,1.8,7.5,9.4,14.8,15.8c0.3,0.3,0.3,0.7,0.1,1&#10;&#9;&#9;C177.4,241.6,177.2,241.7,177,241.7L177,241.7z"/>
	<path class="st2_currencies-30" d="M172,230.9c-0.3,0-0.5-0.2-0.6-0.4c-1-2.2-0.8-4.8,0.5-6.8c0.2-0.3,0.6-0.4,1-0.2c0,0,0,0,0,0&#10;&#9;&#9;c0.3,0.2,0.4,0.7,0.2,1c0,0,0,0,0,0l0,0c-1,1.6-1.2,3.7-0.4,5.4c0.2,0.3,0,0.8-0.3,0.9c0,0,0,0,0,0&#10;&#9;&#9;C172.2,230.9,172.1,230.9,172,230.9L172,230.9z"/>
	<path class="st1_currencies-30" d="M251.5,371.2c-0.1,1.8-0.1,3.6,0,5.4c0.2,0.7,1.6,4.1,1.4,5.1s-11.6,19.2-14.5,16.3s4.4-16.1,4.4-17.5&#10;&#9;&#9;s-0.9-9.4-0.9-9.4L251.5,371.2z"/>
	<path class="st2_currencies-30" d="M239.1,399.1c-0.5,0-0.9-0.2-1.2-0.5c-2.2-2.2,0.1-8.3,3-14.9c0.5-1,0.9-2.1,1.2-3.1c0-1-0.6-6.5-0.9-9.3&#10;&#9;&#9;c0-0.2,0-0.4,0.2-0.5c0.1-0.1,0.3-0.2,0.5-0.2h9.6c0.4,0,0.7,0.3,0.7,0.7c0,0,0,0,0,0c-0.1,1.7-0.1,3.4,0,5.1&#10;&#9;&#9;c0,0.1,0.1,0.3,0.2,0.5c0.9,2.4,1.4,4.1,1.2,5c-0.3,1.3-9.4,15.8-13.8,17.1C239.5,399,239.3,399.1,239.1,399.1L239.1,399.1z&#10;&#9;&#9; M242.6,372c0.2,2.1,0.8,7.5,0.8,8.7c0,0.5-0.4,1.4-1.4,3.7c-1.6,3.8-5,11.6-3.3,13.3c0.1,0,0.1,0.1,0.5,0.1&#10;&#9;&#9;c3.5-0.8,12.5-14.9,12.9-16.1c0.1-0.4-0.3-1.8-1.2-4.2l-0.2-0.5c-0.2-1.6-0.2-3.3-0.1-4.9L242.6,372L242.6,372z"/>
	<path class="st1_currencies-30" d="M226.2,372.5c0,0-0.5,7.6,0,9.4s1.3,3.6,1,4.7s-14.2,13.4-14.9,11.2s5-10.9,5.1-12.5s-1.8-13.5-1.8-13.5&#10;&#9;&#9;L226.2,372.5L226.2,372.5z"/>
	<path class="st2_currencies-30" d="M212.7,398.6c-0.5,0-0.9-0.3-1.1-0.8c-0.5-1.5,1.1-4.6,3.3-8.8c0.7-1.2,1.3-2.6,1.8-3.9&#10;&#9;&#9;c0.1-1.1-1-8.6-1.8-13.4c0-0.2,0-0.4,0.2-0.6c0.1-0.2,0.4-0.2,0.6-0.2l10.6,0.8c0.4,0,0.7,0.4,0.6,0.7c-0.1,2.1-0.4,7.8,0,9.1&#10;&#9;&#9;c0.1,0.5,0.3,0.9,0.4,1.4c0.5,1.2,0.7,2.4,0.6,3.6C227.7,387.9,215.6,398.5,212.7,398.6L212.7,398.6L212.7,398.6z M216.4,372.4&#10;&#9;&#9;c0.5,2.9,1.8,11.4,1.7,12.8c0,0.7-0.7,2-2,4.5s-3.2,6.1-3.2,7.5c2.4-0.5,13-9.7,13.7-11c-0.1-1-0.3-1.9-0.6-2.8&#10;&#9;&#9;c-0.1-0.5-0.3-1-0.4-1.4c-0.4-1.5-0.2-6.9-0.1-8.9L216.4,372.4L216.4,372.4z"/>
	<path class="st1_currencies-30" d="M317.7,237c0,0,4.6-4.6,4.9-6.3s0.9-7.7,2.3-6.6s0.9,5.4,0.9,5.4s6.3-7,8-5.4s2.4,3.2,2.4,6.3&#10;&#9;&#9;s-15.7,15.8-15.7,15.8"/>
	<path class="st2_currencies-30" d="M320.6,246.9c-0.2,0-0.4-0.1-0.5-0.3c-0.2-0.3-0.2-0.7,0.1-1c0,0,0,0,0,0c7.6-6.1,15.4-13.5,15.4-15.2&#10;&#9;&#9;c0-2.8-0.5-4.2-2.2-5.8c0,0,0,0-0.2,0c-1.5,0.1-5,3.3-6.8,5.4c-0.2,0.2-0.5,0.3-0.8,0.2c-0.3-0.1-0.4-0.4-0.4-0.7&#10;&#9;&#9;c0.2-1.5,0.1-3.9-0.5-4.6c-0.5,0.8-0.9,3.6-1.1,4.8c-0.1,0.5-0.1,1-0.2,1.3c-0.4,1.8-4.3,5.9-5.1,6.7c-0.3,0.3-0.7,0.3-1,0&#10;&#9;&#9;s-0.3-0.7,0-1c1.9-1.9,4.5-4.9,4.8-5.9c0.1-0.3,0.1-0.7,0.2-1.2c0.6-3.7,1-5.6,2.1-6c0.4-0.2,0.9-0.1,1.2,0.2&#10;&#9;&#9;c1,0.8,1.3,2.6,1.3,4.1c1.7-1.8,4.6-4.4,6.5-4.4c0.5,0,0.9,0.1,1.2,0.4c1.9,1.8,2.6,3.6,2.6,6.8s-13.3,14.2-16,16.3&#10;&#9;&#9;C320.9,246.8,320.8,246.9,320.6,246.9L320.6,246.9z"/>
	<path class="st2_currencies-30" d="M233,285.9l44.7,2.4c0,0,2.7,12.3-4.9,18.4s-23.1,12.4-24,16.8s4.6,43,4,52.1l-13.8,3.3&#10;&#9;&#9;c0,0-11.9-46.1-11.6-53.7s4.3-11.2,4.3-11.2s-11,9.4-11.3,11.5s7.9,51,7.9,51s-14.5,0.6-14.8-0.3s-13.7-46.1-10.4-55.8&#10;&#9;&#9;S233,285.9,233,285.9z"/>
	<path class="st2_currencies-30" d="M239.1,379.5c-0.3,0-0.5-0.2-0.6-0.5c-0.5-1.9-11.9-46.2-11.6-53.9c0.1-2.6,0.7-5.2,1.7-7.6&#10;&#9;&#9;c-4,3.6-7.4,7.1-7.5,8c-0.2,1.7,4.6,31.3,7.9,50.8c0.1,0.3-0.2,0.7-0.5,0.7c0,0,0,0-0.1,0c-15,0.6-15.3-0.3-15.4-0.8&#10;&#9;&#9;s-13.9-46.1-10.4-56.2c3.4-9.8,28.9-33.6,30-34.6c0.1-0.1,0.3-0.2,0.4-0.2l44.7,2.4c0.3,0,0.5,0.2,0.6,0.5c0.1,0.5,2.7,12.7-5.1,19&#10;&#9;&#9;c-3.7,2.7-7.5,5.1-11.5,7.3c-5.8,3.3-11.8,6.8-12.3,9.2c-0.4,2.1,0.7,12.7,1.8,23c1.3,11.9,2.6,24.3,2.2,29c0,0.3-0.2,0.5-0.5,0.6&#10;&#9;&#9;l-13.8,3.3L239.1,379.5L239.1,379.5z M231.8,313.3c0.2,0,0.3,0.1,0.5,0.2c0.2,0.2,0.2,0.6,0,0.9c0,0-3.8,3.6-4.1,10.8&#10;&#9;&#9;c-0.3,7,10,47.5,11.4,52.9l12.7-3c0.2-5-1.1-17.4-2.3-28.4c-1.2-11.4-2.2-21.2-1.8-23.4c0.6-3,6.3-6.2,12.9-10&#10;&#9;&#9;c4-2.1,7.7-4.5,11.4-7.2c6.4-5.1,5.1-15,4.7-17.3l-44-2.3c-2.4,2.2-26.4,24.9-29.5,34c-3.2,9.3,9.4,52,10.3,55.2&#10;&#9;&#9;c1.2,0.4,7.6,0.4,13.6,0.1c-1.2-7.5-8-48.4-7.8-50.5c0.3-2.2,9.6-10.3,11.5-11.9C231.5,313.4,231.7,313.4,231.8,313.3L231.8,313.3z&#10;&#9;&#9; M214.1,375.9L214.1,375.9z"/>
	<path class="st3_currencies-30 targetColor" d="M279.8,289.3c0,0-2.7-19.4-5.2-29.4c0,0,7.4,13,16.3,13.7s35.1-29.5,35.1-29.5l-7.3-10.4&#10;&#9;&#9;c0,0-18.4,14.4-28.9,19.1c-2.7-6.4-19-29.4-28.4-34s-21.3-1-27.7,4.3c-3.1,2.6-11.1,7.2-25.1,20.1c-10.1-3.6-19.6-8.5-28.4-14.7&#10;&#9;&#9;l-7.3,10.1c0,0,29.4,27.2,37.5,23.1l18.7-9.4l-1,36.6L279.8,289.3L279.8,289.3z" style="fill: rgb(0, 104, 217);"/>
	<path class="st1_currencies-30" d="M241.8,189.2c0,0-7.6,21.7-11,26.2l19.7,7.4l3.7-35L241.8,189.2L241.8,189.2z"/>
	<path class="st2_currencies-30" d="M250.5,223.6c-0.1,0-0.2,0-0.2,0l-19.7-7.4c-0.4-0.1-0.6-0.5-0.4-0.9c0-0.1,0.1-0.1,0.1-0.2&#10;&#9;&#9;c3.3-4.4,10.8-25.9,10.9-26.1c0.1-0.3,0.3-0.4,0.6-0.5l12.4-1.4c0.2,0,0.4,0.1,0.6,0.2c0.1,0.2,0.2,0.4,0.2,0.6l-3.7,35&#10;&#9;&#9;c0,0.2-0.1,0.4-0.3,0.5C250.7,223.5,250.6,223.6,250.5,223.6L250.5,223.6z M231.9,215.2l18,6.8l3.5-33.3l-11.1,1.3&#10;&#9;&#9;C241.2,192.9,235.2,209.8,231.9,215.2L231.9,215.2z"/>
	<path class="st1_currencies-30" d="M245.6,215.9l-2.2,9.7c0,0-1.2,6.1,5.3,5.5c3.9-0.4,7.4-2.5,9.5-5.7l2.6-17.6c0.1-0.8,1.2-8,2.5-14.4&#10;&#9;&#9;c-7.4-1.5-14-3.4-14-3.4c0.6,0.9-2.1,0.5-2.1,0.5c-1.2-0.2-2.4-0.3-3.6-0.1c-1.2,4.2-3.3,8.7-4,13c-0.5,2.6-0.7,5.2-0.7,7.8&#10;&#9;&#9;C239,215.9,245.6,215.8,245.6,215.9L245.6,215.9z"/>
	<path class="st2_currencies-30" d="M247.9,231.7c-1.5,0.1-3-0.4-4-1.5c-1.7-1.9-1.1-4.7-1.1-4.8l2.1-9c-2.6-0.2-6.4-1.5-6.5-5.5&#10;&#9;&#9;c0-2.6,0.2-5.3,0.7-7.9c0.6-2.9,1.4-5.7,2.5-8.5c0.5-1.5,1.1-3.1,1.5-4.6c0.1-0.2,0.3-0.4,0.5-0.4c1.3-0.2,2.6-0.1,3.8,0.1&#10;&#9;&#9;c0.5,0.1,0.9,0.1,1.4,0.1c0-0.1,0.1-0.2,0.1-0.3c0.1-0.2,0.4-0.3,0.7-0.2c0.1,0,6.6,1.9,14,3.4c0.2,0,0.3,0.1,0.4,0.3&#10;&#9;&#9;c0.1,0.1,0.1,0.3,0.1,0.5c-1.2,5.5-2.1,11.8-2.5,14.3c0,0.1-0.9,6-2.6,17.8c0,0.1,0,0.2-0.1,0.2c-2.3,3.4-5.9,5.6-10,6&#10;&#9;&#9;C248.5,231.7,248.2,231.7,247.9,231.7L247.9,231.7z M244,225.7c-0.2,1.3,0.1,2.6,0.8,3.7c0.8,0.9,2,1.2,3.8,1.1&#10;&#9;&#9;c3.6-0.4,6.9-2.3,9-5.3c0.2-1.6,2.6-17.3,2.6-17.5c0.4-2.5,1.3-8.4,2.4-13.9c-5.8-1.2-11-2.6-12.8-3.1c-0.2,0.2-0.8,0.6-2.7,0.3&#10;&#9;&#9;c-1-0.2-2-0.3-3.1-0.2c-0.4,1.4-0.9,2.8-1.4,4.2c-1,2.7-1.9,5.5-2.4,8.3c-0.5,2.5-0.7,5.1-0.7,7.6c0.1,4.3,5.7,4.2,6,4.3l0,0&#10;&#9;&#9;c0.2,0,0.4,0.1,0.5,0.2c0.1,0.2,0.2,0.4,0.1,0.5L244,225.7L244,225.7L244,225.7z"/>
	<path class="st1_currencies-30" d="M249.3,200.8c0,0-4.2,4.2-3.6,5.2s2.9,0.8,2.9,0.8"/>
	<path class="st2_currencies-30" d="M248.2,207.6c-0.8,0-2.5-0.1-3.1-1.2s0.6-3,3.6-6.1c0.3-0.3,0.7-0.3,1,0c0,0,0,0,0,0c0.3,0.3,0.3,0.7,0,1&#10;&#9;&#9;c0,0,0,0,0,0c-1.8,1.9-3.4,4-3.4,4.5c0.7,0.3,1.4,0.5,2.2,0.4c0.4,0,0.7,0.3,0.7,0.7c0,0.3-0.3,0.6-0.6,0.7L248.2,207.6&#10;&#9;&#9;L248.2,207.6z"/>
	<ellipse transform="matrix(0.2239 -0.9746 0.9746 0.2239 -3.292 393.7867)" class="st2_currencies-30" cx="245.6" cy="199" rx="1.1" ry="0.6"/>
	<ellipse transform="matrix(0.2239 -0.9746 0.9746 0.2239 0.6753 403.255)" class="st2_currencies-30" cx="253.5" cy="201.2" rx="1.1" ry="0.6"/>
	<path class="st1_currencies-30" d="M247.4,196.5l1-2l0.8,2.4l6.2,1.9l1.7-2.6l-0.2,3.5l3.3,0.3c0,0-6.2,15.5-6,25.1c0,0,18.6,5.1,23.4,1.8&#10;&#9;&#9;c0,0-5.3-19-5-26.6s-0.2-14.1-9.2-17.6s-15.6-2.4-20.3,1.7c-2.9,2.6-4.5,6.3-4.6,10.1C238.6,194.5,245.6,196.4,247.4,196.5&#10;&#9;&#9;L247.4,196.5z"/>
	<path class="st2_currencies-30" d="M272.2,228.6c-7.3,0-17.4-2.8-18-2.9c-0.3-0.1-0.5-0.3-0.5-0.7c-0.2-8.4,4.4-21.1,5.7-24.5l-2.4-0.2&#10;&#9;&#9;c-0.4,0-0.6-0.4-0.6-0.7l0-1l-0.3,0.5c-0.2,0.3-0.5,0.4-0.8,0.3l-6.3-1.8c-0.2-0.1-0.4-0.2-0.5-0.5l-0.2-0.8l-0.3,0.5&#10;&#9;&#9;c-0.1,0.3-0.4,0.4-0.7,0.4c-1.9-0.2-8.7-2-9-2.1c-0.3-0.1-0.5-0.4-0.5-0.7c0.1-4.1,1.8-7.9,4.8-10.7c5.3-4.6,12.3-5.2,21-1.9&#10;&#9;&#9;c9.4,3.6,9.9,10.4,9.7,18.3c-0.2,7.4,5,26.2,5,26.4c0.1,0.3,0,0.6-0.3,0.8c-1.3,0.9-3.5,1.2-6,1.2L272.2,228.6z M255.1,224.5&#10;&#9;&#9;c5.3,1.4,17.8,4.1,21.9,2c-0.9-3.2-5.1-19.3-4.9-26.3c0.2-7.6-0.3-13.6-8.8-16.9c-8.3-3.2-14.7-2.7-19.6,1.6&#10;&#9;&#9;c-2.6,2.3-4.1,5.6-4.3,9.1c1.5,0.4,5.8,1.5,7.7,1.8l0.8-1.6c0.1-0.3,0.4-0.4,0.7-0.4c0.3,0,0.5,0.2,0.6,0.5l0.6,2l5.4,1.6l1.4-2.2&#10;&#9;&#9;c0.2-0.3,0.7-0.4,1-0.2c0.2,0.1,0.3,0.4,0.3,0.6l-0.1,2.8l2.6,0.3c0.2,0,0.4,0.1,0.5,0.3c0.1,0.2,0.1,0.4,0,0.6&#10;&#9;&#9;C260.9,200.4,255.1,215.1,255.1,224.5z"/>
	<path class="st1_currencies-30" d="M242.3,207.9c0,0,4.8,5.7,9.4-0.3"/>
	<path class="st2_currencies-30" d="M247.1,211c-3,0-5.2-2.6-5.3-2.7c-0.2-0.3-0.1-0.8,0.2-1c0.3-0.2,0.6-0.1,0.9,0.1c0,0,1.9,2.2,4.2,2.2h0.1&#10;&#9;&#9;c1.4,0,2.8-0.9,4-2.5c0.2-0.3,0.7-0.4,1-0.2c0.3,0.2,0.4,0.7,0.2,1c0,0,0,0.1-0.1,0.1C250.7,210,249,211,247.1,211L247.1,211z"/>
	<path class="st2_currencies-30" d="M245.6,215.9c0,0,5.2-0.1,7.4-1.5c0,0-3.2,6.8-9.1,8.9L245.6,215.9L245.6,215.9z"/>
	<path class="st2_currencies-30" d="M243.9,224c-0.2,0-0.3-0.1-0.5-0.2c-0.2-0.2-0.3-0.4-0.2-0.7l1.7-7.4c0.1-0.3,0.3-0.5,0.7-0.5&#10;&#9;&#9;c0,0,5-0.1,7.1-1.4c0.3-0.2,0.6-0.1,0.8,0.1c0.2,0.2,0.3,0.5,0.2,0.8c-0.1,0.3-3.4,7.1-9.5,9.3C244.1,224,244,224,243.9,224&#10;&#9;&#9;L243.9,224z M246.2,216.6l-1.3,5.6c2.7-1.5,4.9-3.7,6.5-6.4C249.7,216.2,247.9,216.5,246.2,216.6L246.2,216.6z"/>
	<path class="st2_currencies-30" d="M326.1,236.3c-0.4,0-0.7-0.3-0.7-0.7c0-0.1,0-0.2,0.1-0.3c0.9-1.7,0.8-3.7-0.1-5.4c-0.2-0.3-0.1-0.8,0.2-1&#10;&#9;&#9;c0.3-0.2,0.8-0.1,1,0.2c1.2,2.1,1.3,4.6,0.2,6.8C326.6,236.1,326.4,236.3,326.1,236.3L326.1,236.3z"/>
	<path class="st1_currencies-30" d="M277.3,263.6c0,0-8.3-10.7-13.7-17.4"/>
	<path class="st2_currencies-30" d="M277.3,264.3c-0.2,0-0.4-0.1-0.5-0.3c-0.1-0.1-8.4-10.8-13.7-17.4c-0.2-0.3-0.2-0.7,0.1-1c0,0,0,0,0,0&#10;&#9;&#9;c0.3-0.2,0.7-0.2,1,0.1c0,0,0,0,0,0c5.3,6.6,13.7,17.3,13.8,17.4c0.2,0.3,0.2,0.7-0.1,1C277.7,264.2,277.5,264.2,277.3,264.3&#10;&#9;&#9;L277.3,264.3z"/>
	<line class="st4_currencies-30" x1="229.4" y1="239.8" x2="228.3" y2="284.4"/>
	<path class="st2_currencies-30" d="M228.3,285.1L228.3,285.1c-0.4,0-0.7-0.3-0.7-0.7c0,0,0,0,0,0l1.1-44.6c0-0.4,0.3-0.7,0.7-0.7&#10;&#9;&#9;c0.4,0,0.7,0.3,0.7,0.7c0,0,0,0,0,0l-1.2,44.6C229,284.8,228.7,285.1,228.3,285.1z"/>
</g>
<g id="Currenct_currencies-30">
	<circle class="st3_currencies-30 targetColor" cx="312.6" cy="134.5" r="49" style="fill: rgb(0, 104, 217);"/>
	<path class="st1_currencies-30" d="M329.5,119.9l5.9-7.1c-2.2-2.4-4.8-4.4-7.9-5.7c-6.9-3-13.8-2.4-20.5,0.9s-10.5,9-12.7,16&#10;&#9;&#9;c-0.7,2.2-0.7,2.2-3.1,2.3h-6.6v6.6h8.2v3.4h-8.2v6.6h9c2.8,11,8.8,18.7,20.5,20.6c8.9,1.4,16.4-1.2,22.4-8.2l-5.8-6.9&#10;&#9;&#9;c-2.6,2.7-5.5,5-9.2,5.7c-3.7,0.8-7.5,0-10.5-2.1c-3.1-2.2-4.8-5.4-5.9-9.1H326v-6.6h-22v-3.4h22v-6.6h-21c1.6-5,4.3-8.9,9.3-10.6&#10;&#9;&#9;C320.2,113.6,325.2,115.4,329.5,119.9L329.5,119.9z"/>
	<path class="st1_currencies-30" d="M312.6,176.6c-23.3,0-42.1-18.9-42.1-42.1s18.9-42.1,42.1-42.1s42.1,18.9,42.1,42.1&#10;&#9;&#9;C354.8,157.7,335.9,176.6,312.6,176.6z M312.6,93.7c-22.5,0-40.7,18.2-40.7,40.7s18.2,40.7,40.7,40.7c22.5,0,40.7-18.2,40.7-40.7&#10;&#9;&#9;l0,0C353.4,112,335.1,93.8,312.6,93.7z"/>
	<circle class="st3_currencies-30 targetColor" cx="187.4" cy="134.5" r="49" style="fill: rgb(0, 104, 217);"/>
	<path class="st1_currencies-30" d="M182.5,150.1c2-3.7,2.3-8.1,1-12.1h7.8v-6.5c-3.1,0-6-0.1-9,0.1c-1.2,0.2-2.4-0.6-2.8-1.7&#10;&#9;&#9;c-2.4-5.1-1.8-10.2,2-14s9.8-4.6,13.8,0.4c1.3,1.8,2.5,3.7,3.6,5.6c0.4,0.6,0.6,1.2,1,1.9l8.4-3.7c-1.1-2-2.1-3.9-3.2-5.7&#10;&#9;&#9;c-2-3.5-4.9-6.4-8.4-8.3c-6.9-3.5-13.6-2.6-19.6,1.9c-6.2,4.7-8.9,11-7.9,18.8c0.2,1.6,0.7,3.1,1,4.8h-6v6.5h8.6&#10;&#9;&#9;c0.3,0,0.9,0.1,0.9,0.3c0.9,1.8,1.8,3.6,1.3,5.6c-1.2,4.8-4.6,8.7-9.1,10.5c-0.2,0.1-0.4,0.2-0.6,0.3c1,2.8,2,5.4,3.1,8.1&#10;&#9;&#9;c0.5-0.2,0.9-0.3,1.2-0.5c1.6-0.7,3.1-1.6,4.7-2.2c3.9-1.6,7.9-2.1,11.9-0.3c1,0.4,2,0.9,3.1,1.3c6.1,2.6,11.5,0.7,16.7-2.5&#10;&#9;&#9;l-3.9-8.5c-0.7,0.4-1.2,0.8-1.8,1.1c-2.6,1.4-5.3,2.4-8.2,1.4C189,151.7,186.1,150.3,182.5,150.1L182.5,150.1z"/>
	<path class="st1_currencies-30" d="M187.4,176.6c-23.3,0-42.1-18.9-42.1-42.1s18.9-42.1,42.1-42.1s42.1,18.9,42.1,42.1&#10;&#9;&#9;C229.5,157.7,210.6,176.6,187.4,176.6z M187.4,93.7c-22.5,0-40.7,18.2-40.7,40.7s18.2,40.7,40.7,40.7s40.7-18.2,40.7-40.7&#10;&#9;&#9;C228.1,112,209.9,93.8,187.4,93.7z"/>
	<circle class="st3_currencies-30 targetColor" cx="98.1" cy="212.7" r="49" style="fill: rgb(0, 104, 217);"/>
	<path class="st1_currencies-30" d="M110.3,212.3c-2.2-1.2-4.5-2.3-6.8-3.3c-0.5-0.1-0.8-0.6-0.7-1.1c0-4,0-8,0-12.1c0-0.2,0-0.3,0.1-0.5&#10;&#9;&#9;c2.9,0.9,5.6,2.6,7.6,4.9c2-2.3,3.8-4.5,5.7-6.6c-3.3-3.7-7.7-6.3-12.5-7.3c-0.7-0.1-0.9-0.4-0.9-1.1c0-1.4,0-2.9,0-4.4h-7.3v5&#10;&#9;&#9;c-1.9,0.6-3.8,1.2-5.7,2c-5.2,2.6-8.4,6.5-8.7,12.5c-0.2,5.8,2.6,10,7.4,12.8c2,1.1,4.1,2,6.2,2.9c0.5,0.1,0.8,0.6,0.7,1.1&#10;&#9;&#9;c0,3.3,0,6.6,0,10v4.3c-3.8-0.8-7.3-2.6-10.1-5.4l-6.3,6.9c4.4,4.4,10.2,7.1,16.3,7.7v4.2h7.4v-4.6c0.4-0.1,0.7-0.2,1-0.3&#10;&#9;&#9;c2.2-0.5,4.3-1.4,6.3-2.6C119.3,231.6,119.8,218,110.3,212.3z M95.3,205.3c-2.4-0.6-4.2-2.7-4.3-5.2c0.1-2.5,1.9-4.5,4.4-4.8&#10;&#9;&#9;L95.3,205.3z M102.8,230.7c0-0.2-0.1-0.4-0.1-0.6v-10.4c2.6,0.6,4.4,2.9,4.4,5.6C107.2,227.9,105.4,230.1,102.8,230.7L102.8,230.7z&#10;&#9;&#9;"/>
	<path class="st1_currencies-30" d="M98.1,254.9C74.8,254.9,56,236,56,212.7s18.9-42.1,42.1-42.1s42.1,18.9,42.1,42.1&#10;&#9;&#9;C140.2,236,121.4,254.8,98.1,254.9z M98.1,172c-22.5,0-40.7,18.2-40.7,40.7s18.2,40.7,40.7,40.7s40.7-18.2,40.7-40.7&#10;&#9;&#9;C138.8,190.2,120.6,172,98.1,172L98.1,172z"/>
	<circle class="st3_currencies-30 targetColor" cx="401.9" cy="212.7" r="49" style="fill: rgb(0, 104, 217);"/>
	<path class="st1_currencies-30" d="M424.1,187.5c-4.8,8.9-9.5,17.6-14.3,26.5h11.8v6.3H408v3.1h13.5v6.3H408v14.8h-12.1v-14.7h-13.6v-6.3h13.5&#10;&#9;&#9;v-3.2h-13.5v-6.2H394c-4.8-8.9-9.5-17.7-14.3-26.6h5.8c2.1,0,4.3,0,6.4,0c0.5-0.1,1,0.2,1.1,0.7c2.8,6.5,5.6,13,8.5,19.5&#10;&#9;&#9;c0.1,0.3,0.2,0.5,0.5,0.9c0.2-0.5,0.4-0.8,0.6-1.1c2.9-6.4,5.7-12.8,8.6-19.2c0.1-0.3,0.6-0.8,0.9-0.8&#10;&#9;&#9;C415.9,187.5,419.9,187.5,424.1,187.5L424.1,187.5z"/>
	<path class="st1_currencies-30" d="M401.9,254.9c-23.3,0-42.1-18.8-42.2-42.1s18.8-42.1,42.1-42.2s42.1,18.8,42.2,42.1c0,0,0,0,0,0&#10;&#9;&#9;C444,236,425.1,254.8,401.9,254.9z M401.9,172c-22.5,0-40.7,18.2-40.7,40.7s18.2,40.7,40.7,40.7c22.5,0,40.7-18.2,40.7-40.7l0,0&#10;&#9;&#9;C442.6,190.2,424.4,172,401.9,172L401.9,172z"/>
</g>
</svg>